<mxfile host="65bd71144e">
    <diagram id="iPiuNk4Hi1Hxf7sgVyUt" name="Page-1">
        <mxGraphModel dx="2484" dy="1331" grid="1" gridSize="10" guides="1" tooltips="1" connect="1" arrows="1" fold="1" page="1" pageScale="1" pageWidth="2400" pageHeight="900" math="0" shadow="0">
            <root>
                <mxCell id="0"/>
                <mxCell id="1" parent="0"/>
                <mxCell id="2" value="Project&#10;" style="strokeColor=#BAC8D3;fillColor=#23445D;fontSize=24;strokeWidth=2;fontFamily=Helvetica;html=1;fontColor=#FFFFFF;fontStyle=0;spacingBottom=8;spacingRight=0;spacingLeft=83;" parent="1" vertex="1">
                    <mxGeometry x="20" y="50" width="2030" height="80" as="geometry"/>
                </mxCell>
                <mxCell id="3" value="Lane 1" style="strokeColor=#BAC8D3;fillColor=#23445D;fontSize=24;strokeWidth=2;horizontal=0;fontFamily=Helvetica;html=1;fontColor=#FFFFFF;fontStyle=0" parent="1" vertex="1">
                    <mxGeometry x="20" y="130" width="50" height="300" as="geometry"/>
                </mxCell>
                <mxCell id="4" value="Lane 1.1" style="strokeColor=#BAC8D3;fillColor=#5d7f99;fontSize=19;strokeWidth=2;horizontal=0;fontFamily=Helvetica;html=1;labelBackgroundColor=none;fontColor=#FFFFFF;" parent="1" vertex="1">
                    <mxGeometry x="70" y="130" width="40" height="100" as="geometry"/>
                </mxCell>
                <mxCell id="5" value="v 1.0" style="strokeColor=#BAC8D3;fillColor=#5d7f99;fontSize=19;strokeWidth=2;fontFamily=Helvetica;html=1;labelBackgroundColor=none;fontColor=#FFFFFF;" parent="1" vertex="1">
                    <mxGeometry x="20" y="50" width="90" height="80" as="geometry"/>
                </mxCell>
                <mxCell id="6" value="Lane 1.2" style="strokeColor=#BAC8D3;fillColor=#5d7f99;fontSize=19;strokeWidth=2;horizontal=0;fontFamily=Helvetica;html=1;labelBackgroundColor=none;fontColor=#FFFFFF;" parent="1" vertex="1">
                    <mxGeometry x="70" y="230" width="40" height="100" as="geometry"/>
                </mxCell>
                <mxCell id="7" value="Lane 1.3" style="strokeColor=#BAC8D3;fillColor=#5d7f99;fontSize=19;strokeWidth=2;horizontal=0;fontFamily=Helvetica;html=1;labelBackgroundColor=none;fontColor=#FFFFFF;" parent="1" vertex="1">
                    <mxGeometry x="70" y="330" width="40" height="100" as="geometry"/>
                </mxCell>
                <mxCell id="8" value="Lane 2.2" style="strokeColor=#BAC8D3;fillColor=#5d7f99;fontSize=19;strokeWidth=2;horizontal=0;fontFamily=Helvetica;html=1;labelBackgroundColor=none;fontColor=#FFFFFF;" parent="1" vertex="1">
                    <mxGeometry x="70" y="530" width="40" height="100" as="geometry"/>
                </mxCell>
                <mxCell id="9" value="Lane 2.1" style="strokeColor=#BAC8D3;fillColor=#5d7f99;fontSize=19;strokeWidth=2;horizontal=0;fontFamily=Helvetica;html=1;labelBackgroundColor=none;fontColor=#FFFFFF;" parent="1" vertex="1">
                    <mxGeometry x="70" y="430" width="40" height="100" as="geometry"/>
                </mxCell>
                <mxCell id="10" value="Lane 2" style="strokeColor=#BAC8D3;fillColor=#23445D;fontSize=24;strokeWidth=2;horizontal=0;fontFamily=Helvetica;html=1;fontColor=#FFFFFF;fontStyle=0" parent="1" vertex="1">
                    <mxGeometry x="20" y="430" width="50" height="200" as="geometry"/>
                </mxCell>
                <mxCell id="11" value="Lane 3.2" style="strokeColor=#BAC8D3;fillColor=#5d7f99;fontSize=19;strokeWidth=2;horizontal=0;fontFamily=Helvetica;html=1;labelBackgroundColor=none;fontColor=#FFFFFF;" parent="1" vertex="1">
                    <mxGeometry x="70" y="730" width="40" height="100" as="geometry"/>
                </mxCell>
                <mxCell id="12" value="Lane 3.1" style="strokeColor=#BAC8D3;fillColor=#5d7f99;fontSize=19;strokeWidth=2;horizontal=0;fontFamily=Helvetica;html=1;labelBackgroundColor=none;fontColor=#FFFFFF;" parent="1" vertex="1">
                    <mxGeometry x="70" y="630" width="40" height="100" as="geometry"/>
                </mxCell>
                <mxCell id="13" value="Lane 3" style="strokeColor=#BAC8D3;fillColor=#23445D;fontSize=24;strokeWidth=2;horizontal=0;fontFamily=Helvetica;html=1;fontColor=#FFFFFF;fontStyle=0" parent="1" vertex="1">
                    <mxGeometry x="20" y="630" width="50" height="200" as="geometry"/>
                </mxCell>
                <mxCell id="14" value="" style="strokeColor=#FFFFFF;fillColor=#BAC8D3;fontSize=18;strokeWidth=2;fontFamily=Helvetica;html=1;opacity=60;" parent="1" vertex="1">
                    <mxGeometry x="110" y="130" width="646.6666666666666" height="100" as="geometry"/>
                </mxCell>
                <mxCell id="15" value="" style="strokeColor=#FFFFFF;fillColor=#BAC8D3;fontSize=18;strokeWidth=2;fontFamily=Helvetica;html=1;opacity=90;" parent="1" vertex="1">
                    <mxGeometry x="110" y="230" width="646.6666666666666" height="100" as="geometry"/>
                </mxCell>
                <mxCell id="16" value="" style="strokeColor=#FFFFFF;fillColor=#BAC8D3;fontSize=18;strokeWidth=2;fontFamily=Helvetica;html=1;opacity=60;" parent="1" vertex="1">
                    <mxGeometry x="110" y="330" width="646.6666666666666" height="100" as="geometry"/>
                </mxCell>
                <mxCell id="17" value="" style="strokeColor=#FFFFFF;fillColor=#BAC8D3;fontSize=18;strokeWidth=2;fontFamily=Helvetica;html=1;opacity=90;" parent="1" vertex="1">
                    <mxGeometry x="110" y="430" width="646.6666666666666" height="100" as="geometry"/>
                </mxCell>
                <mxCell id="18" value="" style="strokeColor=#FFFFFF;fillColor=#BAC8D3;fontSize=18;strokeWidth=2;fontFamily=Helvetica;html=1;opacity=60;" parent="1" vertex="1">
                    <mxGeometry x="110" y="530" width="646.6666666666666" height="100" as="geometry"/>
                </mxCell>
                <mxCell id="19" value="" style="strokeColor=#FFFFFF;fillColor=#BAC8D3;fontSize=18;strokeWidth=2;fontFamily=Helvetica;html=1;opacity=90;" parent="1" vertex="1">
                    <mxGeometry x="110" y="630" width="646.6666666666666" height="100" as="geometry"/>
                </mxCell>
                <mxCell id="20" value="" style="strokeColor=#FFFFFF;fillColor=#BAC8D3;fontSize=18;strokeWidth=2;fontFamily=Helvetica;html=1;opacity=60;" parent="1" vertex="1">
                    <mxGeometry x="110" y="730" width="646.6666666666666" height="100" as="geometry"/>
                </mxCell>
                <mxCell id="21" value="" style="strokeColor=#FFFFFF;fillColor=#BAC8D3;fontSize=18;strokeWidth=2;fontFamily=Helvetica;html=1;opacity=60;" parent="1" vertex="1">
                    <mxGeometry x="756.6666666666666" y="130" width="647" height="100" as="geometry"/>
                </mxCell>
                <mxCell id="22" value="" style="strokeColor=#FFFFFF;fillColor=#BAC8D3;fontSize=18;strokeWidth=2;fontFamily=Helvetica;html=1;opacity=90;" parent="1" vertex="1">
                    <mxGeometry x="756.6666666666666" y="230" width="646.6666666666666" height="100" as="geometry"/>
                </mxCell>
                <mxCell id="23" value="" style="strokeColor=#FFFFFF;fillColor=#BAC8D3;fontSize=18;strokeWidth=2;fontFamily=Helvetica;html=1;opacity=60;" parent="1" vertex="1">
                    <mxGeometry x="756.6666666666666" y="330" width="646.6666666666666" height="100" as="geometry"/>
                </mxCell>
                <mxCell id="24" value="" style="strokeColor=#FFFFFF;fillColor=#BAC8D3;fontSize=18;strokeWidth=2;fontFamily=Helvetica;html=1;opacity=90;" parent="1" vertex="1">
                    <mxGeometry x="756.6666666666666" y="430" width="646.6666666666666" height="100" as="geometry"/>
                </mxCell>
                <mxCell id="25" value="" style="strokeColor=#FFFFFF;fillColor=#BAC8D3;fontSize=18;strokeWidth=2;fontFamily=Helvetica;html=1;opacity=60;" parent="1" vertex="1">
                    <mxGeometry x="756.6666666666666" y="530" width="646.6666666666666" height="100" as="geometry"/>
                </mxCell>
                <mxCell id="26" value="" style="strokeColor=#FFFFFF;fillColor=#BAC8D3;fontSize=18;strokeWidth=2;fontFamily=Helvetica;html=1;opacity=90;" parent="1" vertex="1">
                    <mxGeometry x="756.6666666666666" y="630" width="646.6666666666666" height="100" as="geometry"/>
                </mxCell>
                <mxCell id="27" value="" style="strokeColor=#FFFFFF;fillColor=#BAC8D3;fontSize=18;strokeWidth=2;fontFamily=Helvetica;html=1;opacity=60;fontStyle=4" parent="1" vertex="1">
                    <mxGeometry x="756.6666666666666" y="730" width="646.6666666666666" height="100" as="geometry"/>
                </mxCell>
                <mxCell id="28" value="" style="strokeColor=#FFFFFF;fillColor=#BAC8D3;fontSize=18;strokeWidth=2;fontFamily=Helvetica;html=1;opacity=60;" parent="1" vertex="1">
                    <mxGeometry x="1403.3333333333333" y="130" width="647" height="100" as="geometry"/>
                </mxCell>
                <mxCell id="29" value="" style="strokeColor=#FFFFFF;fillColor=#BAC8D3;fontSize=18;strokeWidth=2;fontFamily=Helvetica;html=1;opacity=90;" parent="1" vertex="1">
                    <mxGeometry x="1403.3333333333333" y="230" width="646.6666666666666" height="100" as="geometry"/>
                </mxCell>
                <mxCell id="30" value="" style="strokeColor=#FFFFFF;fillColor=#BAC8D3;fontSize=18;strokeWidth=2;fontFamily=Helvetica;html=1;opacity=60;" parent="1" vertex="1">
                    <mxGeometry x="1403.3333333333333" y="330" width="646.6666666666666" height="100" as="geometry"/>
                </mxCell>
                <mxCell id="31" value="" style="strokeColor=#FFFFFF;fillColor=#BAC8D3;fontSize=18;strokeWidth=2;fontFamily=Helvetica;html=1;opacity=90;" parent="1" vertex="1">
                    <mxGeometry x="1403.3333333333333" y="430" width="646.6666666666666" height="100" as="geometry"/>
                </mxCell>
                <mxCell id="32" value="" style="strokeColor=#FFFFFF;fillColor=#BAC8D3;fontSize=18;strokeWidth=2;fontFamily=Helvetica;html=1;opacity=60;" parent="1" vertex="1">
                    <mxGeometry x="1403.3333333333333" y="530" width="646.6666666666666" height="100" as="geometry"/>
                </mxCell>
                <mxCell id="33" value="" style="strokeColor=#FFFFFF;fillColor=#BAC8D3;fontSize=18;strokeWidth=2;fontFamily=Helvetica;html=1;opacity=90;" parent="1" vertex="1">
                    <mxGeometry x="1403.3333333333333" y="630" width="646.6666666666666" height="100" as="geometry"/>
                </mxCell>
                <mxCell id="34" value="" style="strokeColor=#FFFFFF;fillColor=#BAC8D3;fontSize=18;strokeWidth=2;fontFamily=Helvetica;html=1;opacity=60;fontStyle=4" parent="1" vertex="1">
                    <mxGeometry x="1403.3333333333333" y="730" width="646.6666666666666" height="100" as="geometry"/>
                </mxCell>
                <mxCell id="35" style="edgeStyle=orthogonalEdgeStyle;rounded=1;jumpStyle=none;html=1;exitX=1;exitY=0.5;entryX=0;entryY=0.5;labelBackgroundColor=#ffffff;startArrow=none;startFill=0;endArrow=classic;jettySize=auto;orthogonalLoop=1;strokeColor=#0C343D;strokeWidth=3;fontFamily=Helvetica;fontSize=11;fontColor=#000000;" parent="1" source="36" target="38" edge="1">
                    <mxGeometry relative="1" as="geometry">
                        <Array as="points">
                            <mxPoint x="288" y="180"/>
                            <mxPoint x="288" y="380"/>
                        </Array>
                    </mxGeometry>
                </mxCell>
                <mxCell id="36" value="" style="rounded=1;fillColor=#23445D;strokeColor=none;strokeWidth=2;fontFamily=Helvetica;html=1;gradientColor=none;" parent="1" vertex="1">
                    <mxGeometry x="136.39455782312928" y="155" width="127" height="50" as="geometry"/>
                </mxCell>
                <mxCell id="37" value="" style="rounded=1;fillColor=#23445D;strokeColor=none;strokeWidth=2;fontFamily=Helvetica;html=1;gradientColor=none;" parent="1" vertex="1">
                    <mxGeometry x="581.9047619047619" y="155" width="127" height="50" as="geometry"/>
                </mxCell>
                <mxCell id="38" value="" style="rounded=1;fillColor=#23445D;strokeColor=none;strokeWidth=2;fontFamily=Helvetica;html=1;gradientColor=none;" parent="1" vertex="1">
                    <mxGeometry x="344.3537414965986" y="355" width="127" height="50" as="geometry"/>
                </mxCell>
                <mxCell id="39" value="" style="rounded=1;fillColor=#23445D;strokeColor=none;strokeWidth=2;fontFamily=Helvetica;html=1;gradientColor=none;" parent="1" vertex="1">
                    <mxGeometry x="581.9047619047619" y="455" width="127" height="50" as="geometry"/>
                </mxCell>
                <mxCell id="40" value="" style="rounded=1;fillColor=#23445D;strokeColor=none;strokeWidth=2;fontFamily=Helvetica;html=1;gradientColor=none;" parent="1" vertex="1">
                    <mxGeometry x="581.9047619047619" y="555" width="127" height="50" as="geometry"/>
                </mxCell>
                <mxCell id="41" value="" style="rounded=1;fillColor=#23445D;strokeColor=none;strokeWidth=2;fontFamily=Helvetica;html=1;gradientColor=none;" parent="1" vertex="1">
                    <mxGeometry x="344.3537414965986" y="655" width="127" height="50" as="geometry"/>
                </mxCell>
                <mxCell id="42" value="" style="rounded=1;fillColor=#23445D;strokeColor=none;strokeWidth=2;fontFamily=Helvetica;html=1;gradientColor=none;" parent="1" vertex="1">
                    <mxGeometry x="344.3537414965986" y="555" width="127" height="50" as="geometry"/>
                </mxCell>
                <mxCell id="43" value="" style="rounded=1;fillColor=#23445D;strokeColor=none;strokeWidth=2;fontFamily=Helvetica;html=1;gradientColor=none;" parent="1" vertex="1">
                    <mxGeometry x="1027.4149659863945" y="255" width="127" height="50" as="geometry"/>
                </mxCell>
                <mxCell id="44" value="" style="rounded=1;fillColor=#23445D;strokeColor=none;strokeWidth=2;fontFamily=Helvetica;html=1;gradientColor=none;" parent="1" vertex="1">
                    <mxGeometry x="1238.5714285714284" y="155" width="127" height="50" as="geometry"/>
                </mxCell>
                <mxCell id="45" value="" style="rounded=1;fillColor=#23445D;strokeColor=none;strokeWidth=2;gradientColor=none;fontFamily=Helvetica;html=1;" parent="1" vertex="1">
                    <mxGeometry x="1895.2380952380954" y="655" width="127" height="50" as="geometry"/>
                </mxCell>
                <mxCell id="46" value="" style="rounded=1;fillColor=#23445D;strokeColor=none;strokeWidth=2;fontFamily=Helvetica;html=1;gradientColor=none;" parent="1" vertex="1">
                    <mxGeometry x="1027.4149659863945" y="455" width="127" height="50" as="geometry"/>
                </mxCell>
                <mxCell id="47" value="" style="rounded=1;fillColor=#23445D;strokeColor=none;strokeWidth=2;fontFamily=Helvetica;html=1;gradientColor=none;" parent="1" vertex="1">
                    <mxGeometry x="1027.4149659863945" y="755" width="127" height="50" as="geometry"/>
                </mxCell>
                <mxCell id="48" value="" style="rounded=1;fillColor=#23445D;strokeColor=none;strokeWidth=2;fontFamily=Helvetica;html=1;gradientColor=none;" parent="1" vertex="1">
                    <mxGeometry x="806.2585034013605" y="655" width="127" height="50" as="geometry"/>
                </mxCell>
                <mxCell id="49" value="" style="rounded=1;fillColor=#23445D;strokeColor=none;strokeWidth=2;fontFamily=Helvetica;html=1;gradientColor=none;" parent="1" vertex="1">
                    <mxGeometry x="1027.4149659863945" y="655" width="127" height="50" as="geometry"/>
                </mxCell>
                <mxCell id="50" value="" style="rounded=1;fillColor=#23445D;strokeColor=none;strokeWidth=2;fontFamily=Helvetica;html=1;gradientColor=none;" parent="1" vertex="1">
                    <mxGeometry x="806.2585034013605" y="455" width="127" height="50" as="geometry"/>
                </mxCell>
                <mxCell id="51" value="" style="rounded=1;fillColor=#23445D;strokeColor=none;strokeWidth=2;fontFamily=Helvetica;html=1;gradientColor=none;" parent="1" vertex="1">
                    <mxGeometry x="1238.5714285714284" y="355" width="127" height="50" as="geometry"/>
                </mxCell>
                <mxCell id="52" value="" style="rounded=1;fillColor=#23445D;strokeColor=none;strokeWidth=2;gradientColor=none;fontFamily=Helvetica;html=1;" parent="1" vertex="1">
                    <mxGeometry x="1452.9251700680272" y="555" width="127" height="50" as="geometry"/>
                </mxCell>
                <mxCell id="53" value="" style="rounded=1;fillColor=#23445D;strokeColor=none;strokeWidth=2;gradientColor=none;fontFamily=Helvetica;html=1;" parent="1" vertex="1">
                    <mxGeometry x="1674.0816326530612" y="555" width="127" height="50" as="geometry"/>
                </mxCell>
                <mxCell id="54" value="" style="rounded=1;fillColor=#23445D;strokeColor=none;strokeWidth=2;gradientColor=none;fontFamily=Helvetica;html=1;" parent="1" vertex="1">
                    <mxGeometry x="1439.7278911564624" y="255" width="127" height="50" as="geometry"/>
                </mxCell>
                <mxCell id="55" value="" style="rounded=1;fillColor=#23445D;strokeColor=none;strokeWidth=2;gradientColor=none;fontFamily=Helvetica;html=1;" parent="1" vertex="1">
                    <mxGeometry x="1452.9251700680272" y="655" width="127" height="50" as="geometry"/>
                </mxCell>
                <mxCell id="56" value="" style="rounded=1;fillColor=#23445D;strokeColor=none;strokeWidth=2;gradientColor=none;fontFamily=Helvetica;html=1;" parent="1" vertex="1">
                    <mxGeometry x="1674.0816326530612" y="755" width="127" height="50" as="geometry"/>
                </mxCell>
                <mxCell id="57" value="" style="rounded=1;fillColor=#23445D;strokeColor=none;strokeWidth=2;gradientColor=none;fontFamily=Helvetica;html=1;" parent="1" vertex="1">
                    <mxGeometry x="1674.0816326530612" y="155" width="127" height="50" as="geometry"/>
                </mxCell>
                <mxCell id="58" value="" style="edgeStyle=elbowEdgeStyle;elbow=horizontal;strokeWidth=3;strokeColor=#0C343D;fontFamily=Helvetica;html=1;" parent="1" source="36" target="42" edge="1">
                    <mxGeometry x="-127.55102040816325" y="30" width="131.97278911564624" height="100" as="geometry">
                        <mxPoint x="-127.55102040816325" y="130" as="sourcePoint"/>
                        <mxPoint x="4.421768707483011" y="30" as="targetPoint"/>
                        <Array as="points">
                            <mxPoint x="288" y="393"/>
                        </Array>
                    </mxGeometry>
                </mxCell>
                <mxCell id="59" value="" style="edgeStyle=elbowEdgeStyle;elbow=horizontal;strokeWidth=3;strokeColor=#0C343D;fontFamily=Helvetica;html=1;" parent="1" source="36" target="41" edge="1">
                    <mxGeometry x="-127.55102040816325" y="30" width="131.97278911564624" height="100" as="geometry">
                        <mxPoint x="-127.55102040816325" y="130" as="sourcePoint"/>
                        <mxPoint x="4.421768707483011" y="30" as="targetPoint"/>
                        <Array as="points">
                            <mxPoint x="288" y="302"/>
                        </Array>
                    </mxGeometry>
                </mxCell>
                <mxCell id="60" value="" style="edgeStyle=elbowEdgeStyle;elbow=horizontal;strokeWidth=3;strokeColor=#0C343D;fontFamily=Helvetica;html=1;" parent="1" source="38" target="37" edge="1">
                    <mxGeometry x="-127.55102040816325" y="30" width="131.97278911564624" height="100" as="geometry">
                        <mxPoint x="-127.55102040816325" y="130" as="sourcePoint"/>
                        <mxPoint x="4.421768707483011" y="30" as="targetPoint"/>
                    </mxGeometry>
                </mxCell>
                <mxCell id="61" value="" style="edgeStyle=elbowEdgeStyle;elbow=horizontal;strokeWidth=3;strokeColor=#0C343D;fontFamily=Helvetica;html=1;" parent="1" source="38" target="39" edge="1">
                    <mxGeometry x="-127.55102040816325" y="30" width="131.97278911564624" height="100" as="geometry">
                        <mxPoint x="-127.55102040816325" y="130" as="sourcePoint"/>
                        <mxPoint x="4.421768707483011" y="30" as="targetPoint"/>
                    </mxGeometry>
                </mxCell>
                <mxCell id="62" value="" style="edgeStyle=elbowEdgeStyle;elbow=horizontal;strokeWidth=3;strokeColor=#0C343D;fontFamily=Helvetica;html=1;" parent="1" source="42" target="39" edge="1">
                    <mxGeometry x="-127.55102040816325" y="30" width="131.97278911564624" height="100" as="geometry">
                        <mxPoint x="-127.55102040816325" y="130" as="sourcePoint"/>
                        <mxPoint x="4.421768707483011" y="30" as="targetPoint"/>
                    </mxGeometry>
                </mxCell>
                <mxCell id="63" value="" style="edgeStyle=elbowEdgeStyle;elbow=horizontal;strokeWidth=3;strokeColor=#0C343D;fontFamily=Helvetica;html=1;" parent="1" source="42" target="40" edge="1">
                    <mxGeometry x="-127.55102040816325" y="30" width="131.97278911564624" height="100" as="geometry">
                        <mxPoint x="-127.55102040816325" y="130" as="sourcePoint"/>
                        <mxPoint x="4.421768707483011" y="30" as="targetPoint"/>
                    </mxGeometry>
                </mxCell>
                <mxCell id="64" value="" style="edgeStyle=elbowEdgeStyle;elbow=horizontal;strokeWidth=3;strokeColor=#0C343D;fontFamily=Helvetica;html=1;" parent="1" source="41" target="40" edge="1">
                    <mxGeometry x="-127.55102040816325" y="30" width="131.97278911564624" height="100" as="geometry">
                        <mxPoint x="-127.55102040816325" y="130" as="sourcePoint"/>
                        <mxPoint x="4.421768707483011" y="30" as="targetPoint"/>
                        <Array as="points">
                            <mxPoint x="534.952380952381" y="634"/>
                        </Array>
                    </mxGeometry>
                </mxCell>
                <mxCell id="65" value="" style="edgeStyle=elbowEdgeStyle;elbow=horizontal;strokeWidth=3;strokeColor=#0C343D;fontFamily=Helvetica;html=1;" parent="1" source="37" target="43" edge="1">
                    <mxGeometry x="-127.55102040816325" y="30" width="131.97278911564624" height="100" as="geometry">
                        <mxPoint x="-127.55102040816325" y="130" as="sourcePoint"/>
                        <mxPoint x="4.421768707483011" y="30" as="targetPoint"/>
                    </mxGeometry>
                </mxCell>
                <mxCell id="66" value="" style="edgeStyle=elbowEdgeStyle;elbow=horizontal;strokeWidth=3;strokeColor=#0C343D;fontFamily=Helvetica;html=1;" parent="1" source="39" target="50" edge="1">
                    <mxGeometry x="-127.55102040816325" y="30" width="131.97278911564624" height="100" as="geometry">
                        <mxPoint x="-127.55102040816325" y="130" as="sourcePoint"/>
                        <mxPoint x="4.421768707483011" y="30" as="targetPoint"/>
                    </mxGeometry>
                </mxCell>
                <mxCell id="67" value="" style="edgeStyle=elbowEdgeStyle;elbow=horizontal;strokeWidth=3;strokeColor=#0C343D;fontFamily=Helvetica;html=1;" parent="1" source="50" target="46" edge="1">
                    <mxGeometry x="-127.55102040816325" y="30" width="131.97278911564624" height="100" as="geometry">
                        <mxPoint x="-127.55102040816325" y="130" as="sourcePoint"/>
                        <mxPoint x="4.421768707483011" y="30" as="targetPoint"/>
                    </mxGeometry>
                </mxCell>
                <mxCell id="68" value="" style="edgeStyle=elbowEdgeStyle;elbow=horizontal;strokeWidth=3;strokeColor=#0C343D;fontFamily=Helvetica;html=1;" parent="1" source="37" target="44" edge="1">
                    <mxGeometry x="-127.55102040816325" y="30" width="131.97278911564624" height="100" as="geometry">
                        <mxPoint x="-127.55102040816325" y="130" as="sourcePoint"/>
                        <mxPoint x="4.421768707483011" y="30" as="targetPoint"/>
                    </mxGeometry>
                </mxCell>
                <mxCell id="69" value="" style="edgeStyle=elbowEdgeStyle;elbow=horizontal;strokeWidth=3;strokeColor=#0C343D;fontFamily=Helvetica;html=1;" parent="1" source="40" target="48" edge="1">
                    <mxGeometry x="-127.55102040816325" y="30" width="131.97278911564624" height="100" as="geometry">
                        <mxPoint x="-127.55102040816325" y="130" as="sourcePoint"/>
                        <mxPoint x="4.421768707483011" y="30" as="targetPoint"/>
                        <Array as="points">
                            <mxPoint x="743.4693877551019" y="630"/>
                        </Array>
                    </mxGeometry>
                </mxCell>
                <mxCell id="70" value="" style="edgeStyle=elbowEdgeStyle;elbow=horizontal;strokeWidth=3;strokeColor=#0C343D;fontFamily=Helvetica;html=1;" parent="1" source="48" target="49" edge="1">
                    <mxGeometry x="-127.55102040816325" y="30" width="131.97278911564624" height="100" as="geometry">
                        <mxPoint x="-127.55102040816325" y="130" as="sourcePoint"/>
                        <mxPoint x="4.421768707483011" y="30" as="targetPoint"/>
                    </mxGeometry>
                </mxCell>
                <mxCell id="71" value="" style="edgeStyle=elbowEdgeStyle;elbow=horizontal;strokeWidth=3;strokeColor=#0C343D;fontFamily=Helvetica;html=1;" parent="1" source="48" target="47" edge="1">
                    <mxGeometry x="-127.55102040816325" y="30" width="131.97278911564624" height="100" as="geometry">
                        <mxPoint x="-127.55102040816325" y="130" as="sourcePoint"/>
                        <mxPoint x="4.421768707483011" y="30" as="targetPoint"/>
                    </mxGeometry>
                </mxCell>
                <mxCell id="72" value="" style="edgeStyle=elbowEdgeStyle;elbow=horizontal;strokeWidth=3;strokeColor=#0C343D;fontFamily=Helvetica;html=1;" parent="1" source="47" target="56" edge="1">
                    <mxGeometry x="-127.55102040816325" y="30" width="131.97278911564624" height="100" as="geometry">
                        <mxPoint x="-127.55102040816325" y="130" as="sourcePoint"/>
                        <mxPoint x="4.421768707483011" y="30" as="targetPoint"/>
                    </mxGeometry>
                </mxCell>
                <mxCell id="73" value="" style="edgeStyle=elbowEdgeStyle;elbow=horizontal;strokeWidth=3;strokeColor=#0C343D;fontFamily=Helvetica;html=1;" parent="1" source="56" target="45" edge="1">
                    <mxGeometry x="-127.55102040816325" y="30" width="131.97278911564624" height="100" as="geometry">
                        <mxPoint x="-127.55102040816325" y="130" as="sourcePoint"/>
                        <mxPoint x="4.421768707483011" y="30" as="targetPoint"/>
                    </mxGeometry>
                </mxCell>
                <mxCell id="74" value="" style="edgeStyle=elbowEdgeStyle;elbow=horizontal;strokeWidth=3;strokeColor=#0C343D;fontFamily=Helvetica;html=1;" parent="1" source="54" target="45" edge="1">
                    <mxGeometry x="-127.55102040816325" y="30" width="131.97278911564624" height="100" as="geometry">
                        <mxPoint x="-127.55102040816325" y="130" as="sourcePoint"/>
                        <mxPoint x="4.421768707483011" y="30" as="targetPoint"/>
                        <Array as="points">
                            <mxPoint x="1642" y="480"/>
                        </Array>
                    </mxGeometry>
                </mxCell>
                <mxCell id="75" value="" style="edgeStyle=elbowEdgeStyle;elbow=horizontal;strokeWidth=3;strokeColor=#0C343D;fontFamily=Helvetica;html=1;" parent="1" source="55" target="56" edge="1">
                    <mxGeometry x="-127.55102040816325" y="30" width="131.97278911564624" height="100" as="geometry">
                        <mxPoint x="-127.55102040816325" y="130" as="sourcePoint"/>
                        <mxPoint x="4.421768707483011" y="30" as="targetPoint"/>
                    </mxGeometry>
                </mxCell>
                <mxCell id="76" value="" style="edgeStyle=elbowEdgeStyle;elbow=horizontal;strokeWidth=3;strokeColor=#0C343D;fontFamily=Helvetica;html=1;" parent="1" source="49" target="52" edge="1">
                    <mxGeometry x="-127.55102040816325" y="30" width="131.97278911564624" height="100" as="geometry">
                        <mxPoint x="-127.55102040816325" y="130" as="sourcePoint"/>
                        <mxPoint x="4.421768707483011" y="30" as="targetPoint"/>
                    </mxGeometry>
                </mxCell>
                <mxCell id="77" value="" style="edgeStyle=elbowEdgeStyle;elbow=horizontal;strokeWidth=3;strokeColor=#0C343D;fontFamily=Helvetica;html=1;" parent="1" source="49" target="55" edge="1">
                    <mxGeometry x="-127.55102040816325" y="30" width="131.97278911564624" height="100" as="geometry">
                        <mxPoint x="-127.55102040816325" y="130" as="sourcePoint"/>
                        <mxPoint x="4.421768707483011" y="30" as="targetPoint"/>
                    </mxGeometry>
                </mxCell>
                <mxCell id="78" value="" style="edgeStyle=elbowEdgeStyle;elbow=horizontal;strokeWidth=3;strokeColor=#0C343D;fontFamily=Helvetica;html=1;" parent="1" source="46" target="51" edge="1">
                    <mxGeometry x="-127.55102040816325" y="30" width="131.97278911564624" height="100" as="geometry">
                        <mxPoint x="-127.55102040816325" y="130" as="sourcePoint"/>
                        <mxPoint x="4.421768707483011" y="30" as="targetPoint"/>
                    </mxGeometry>
                </mxCell>
                <mxCell id="79" value="" style="edgeStyle=elbowEdgeStyle;elbow=horizontal;strokeWidth=3;strokeColor=#0C343D;fontFamily=Helvetica;html=1;" parent="1" source="43" target="54" edge="1">
                    <mxGeometry x="-127.55102040816325" y="30" width="131.97278911564624" height="100" as="geometry">
                        <mxPoint x="-127.55102040816325" y="130" as="sourcePoint"/>
                        <mxPoint x="4.421768707483011" y="30" as="targetPoint"/>
                    </mxGeometry>
                </mxCell>
                <mxCell id="80" value="" style="edgeStyle=elbowEdgeStyle;elbow=horizontal;strokeWidth=3;strokeColor=#0C343D;fontFamily=Helvetica;html=1;" parent="1" source="44" target="54" edge="1">
                    <mxGeometry x="-127.55102040816325" y="30" width="131.97278911564624" height="100" as="geometry">
                        <mxPoint x="-127.55102040816325" y="130" as="sourcePoint"/>
                        <mxPoint x="4.421768707483011" y="30" as="targetPoint"/>
                        <Array as="points">
                            <mxPoint x="1390.1360544217687" y="230"/>
                        </Array>
                    </mxGeometry>
                </mxCell>
                <mxCell id="81" value="" style="edgeStyle=elbowEdgeStyle;elbow=horizontal;strokeWidth=3;strokeColor=#0C343D;fontFamily=Helvetica;html=1;" parent="1" source="44" target="57" edge="1">
                    <mxGeometry x="-127.55102040816325" y="30" width="131.97278911564624" height="100" as="geometry">
                        <mxPoint x="-127.55102040816325" y="130" as="sourcePoint"/>
                        <mxPoint x="4.421768707483011" y="30" as="targetPoint"/>
                    </mxGeometry>
                </mxCell>
                <mxCell id="82" value="" style="edgeStyle=elbowEdgeStyle;elbow=horizontal;strokeWidth=3;strokeColor=#0C343D;fontFamily=Helvetica;html=1;" parent="1" source="57" target="45" edge="1">
                    <mxGeometry x="-127.55102040816325" y="30" width="131.97278911564624" height="100" as="geometry">
                        <mxPoint x="-127.55102040816325" y="130" as="sourcePoint"/>
                        <mxPoint x="4.421768707483011" y="30" as="targetPoint"/>
                    </mxGeometry>
                </mxCell>
                <mxCell id="83" value="" style="edgeStyle=elbowEdgeStyle;elbow=horizontal;strokeWidth=3;strokeColor=#0C343D;fontFamily=Helvetica;html=1;" parent="1" source="53" target="45" edge="1">
                    <mxGeometry x="-127.55102040816325" y="30" width="131.97278911564624" height="100" as="geometry">
                        <mxPoint x="-127.55102040816325" y="130" as="sourcePoint"/>
                        <mxPoint x="4.421768707483011" y="30" as="targetPoint"/>
                    </mxGeometry>
                </mxCell>
                <mxCell id="84" value="" style="edgeStyle=elbowEdgeStyle;elbow=horizontal;strokeWidth=3;strokeColor=#0C343D;fontFamily=Helvetica;html=1;" parent="1" source="52" target="53" edge="1">
                    <mxGeometry x="-127.55102040816325" y="30" width="131.97278911564624" height="100" as="geometry">
                        <mxPoint x="-127.55102040816325" y="130" as="sourcePoint"/>
                        <mxPoint x="4.421768707483011" y="30" as="targetPoint"/>
                    </mxGeometry>
                </mxCell>
                <mxCell id="85" value="" style="edgeStyle=elbowEdgeStyle;elbow=horizontal;strokeWidth=3;strokeColor=#0C343D;fontFamily=Helvetica;html=1;" parent="1" source="51" target="52" edge="1">
                    <mxGeometry x="-127.55102040816325" y="30" width="131.97278911564624" height="100" as="geometry">
                        <mxPoint x="-127.55102040816325" y="130" as="sourcePoint"/>
                        <mxPoint x="4.421768707483011" y="30" as="targetPoint"/>
                        <Array as="points">
                            <mxPoint x="1390.1360544217687" y="480"/>
                        </Array>
                    </mxGeometry>
                </mxCell>
                <mxCell id="86" value="" style="group" parent="1" vertex="1" connectable="0">
                    <mxGeometry x="110" y="90" width="646.6666666666666" height="40" as="geometry"/>
                </mxCell>
                <mxCell id="87" value="Milestone 1" style="strokeColor=#BAC8D3;fillColor=#5d7f99;fontSize=19;strokeWidth=2;fontFamily=Helvetica;html=1;labelBackgroundColor=none;fontColor=#FFFFFF;" parent="86" vertex="1">
                    <mxGeometry width="646.6656362699642" height="40" as="geometry"/>
                </mxCell>
                <mxCell id="88" value="Milestone 2" style="strokeColor=#BAC8D3;fillColor=#5d7f99;fontSize=19;strokeWidth=2;fontFamily=Helvetica;html=1;labelBackgroundColor=none;fontColor=#FFFFFF;" parent="86" vertex="1">
                    <mxGeometry x="646.6656362699642" width="646.6656362699642" height="40" as="geometry"/>
                </mxCell>
                <mxCell id="89" value="Milestone 3" style="strokeColor=#BAC8D3;fillColor=#5d7f99;fontSize=19;strokeWidth=2;fontFamily=Helvetica;html=1;labelBackgroundColor=none;fontColor=#FFFFFF;" parent="86" vertex="1">
                    <mxGeometry x="1293.3312725399282" width="646.6666666666666" height="40" as="geometry"/>
                </mxCell>
            </root>
        </mxGraphModel>
    </diagram>
</mxfile>